<?xml version="1.0" standalone="no"?>
<!DOCTYPE svg PUBLIC "-//W3C//DTD SVG 20010904//EN"
 "http://www.w3.org/TR/2001/REC-SVG-20010904/DTD/svg10.dtd">
<svg version="1.0" xmlns="http://www.w3.org/2000/svg"
 width="700.000000pt" height="700.000000pt" viewBox="0 0 700.000000 700.000000"
 preserveAspectRatio="xMidYMid meet">
<metadata>
Created by potrace 1.14, written by Peter Selinger 2001-2017
</metadata>
<g transform="translate(0.000000,700.000000) scale(0.100000,-0.100000)"
fill="#000000" stroke="none">
<path d="M3278 6995 c-1 -1 -41 -6 -88 -9 -47 -4 -101 -9 -120 -12 -37 -5
-153 -22 -205 -30 -158 -25 -552 -139 -670 -193 -11 -6 -54 -24 -95 -42 -98
-41 -259 -122 -339 -171 -34 -21 -65 -38 -68 -38 -4 0 -236 -154 -257 -171 -6
-5 -49 -39 -96 -76 -598 -470 -1030 -1123 -1224 -1853 -25 -92 -42 -172 -71
-330 -3 -14 -7 -47 -11 -75 -3 -27 -8 -57 -9 -66 -19 -98 -27 -593 -12 -729 3
-36 9 -92 13 -125 17 -183 86 -485 159 -700 219 -651 636 -1230 1196 -1661 62
-47 258 -184 264 -184 3 0 28 -15 57 -33 75 -48 268 -148 368 -192 47 -21 104
-46 127 -56 84 -37 397 -136 483 -153 14 -3 59 -12 100 -21 41 -9 84 -18 95
-20 33 -6 97 -16 140 -21 22 -3 51 -7 65 -10 158 -25 682 -25 842 1 13 2 43 6
68 9 25 3 72 11 105 17 33 5 74 12 90 15 80 14 294 70 412 109 1045 345 1872
1169 2224 2216 37 111 107 374 114 431 2 15 6 35 9 45 3 10 8 43 11 73 4 30 8
57 10 60 2 3 6 39 10 80 4 41 9 89 12 105 8 60 10 512 2 597 -13 144 -22 210
-39 308 -6 36 -13 79 -16 95 -3 17 -21 91 -39 165 -116 468 -336 919 -632
1297 -145 186 -336 387 -388 409 -88 37 -179 -64 -133 -149 6 -12 43 -54 82
-93 104 -105 208 -222 276 -313 14 -18 34 -45 46 -59 118 -150 279 -434 377
-663 74 -174 165 -465 191 -614 3 -16 10 -55 16 -85 6 -30 13 -77 16 -105 3
-27 7 -56 10 -64 25 -77 24 -735 -1 -814 -2 -7 -6 -34 -9 -62 -3 -27 -10 -75
-16 -105 -6 -30 -13 -68 -16 -85 -49 -289 -217 -724 -391 -1013 -53 -88 -192
-294 -225 -334 -13 -15 -54 -66 -93 -112 -145 -176 -404 -415 -610 -562 -172
-123 -433 -269 -625 -349 -133 -56 -382 -139 -485 -161 -336 -74 -464 -89
-770 -89 -275 0 -355 6 -585 46 -228 39 -496 116 -675 194 -322 140 -564 283
-810 480 -92 73 -360 332 -430 415 -249 294 -428 592 -569 945 -46 117 -127
372 -142 448 -2 12 -12 64 -23 116 -43 208 -56 355 -56 631 0 321 12 428 90
793 14 66 92 305 133 409 164 414 402 777 719 1098 225 227 427 385 689 537
256 148 565 276 819 339 113 28 165 39 280 59 101 17 149 23 255 33 107 9 492
9 585 0 66 -7 272 -35 305 -42 8 -1 33 -6 55 -10 372 -71 774 -237 1137 -468
110 -70 172 -65 209 16 19 43 12 88 -18 117 -64 63 -435 267 -628 346 -277
114 -570 198 -795 228 -19 3 -46 7 -60 10 -13 2 -54 7 -90 11 -36 3 -78 8 -95
11 -33 5 -531 13 -537 8z"/>
<path d="M5115 5523 c-22 -5 -49 -17 -205 -91 -129 -61 -195 -92 -530 -247
-146 -68 -305 -142 -355 -165 -49 -23 -112 -52 -140 -65 -27 -12 -88 -41 -135
-63 -139 -65 -232 -109 -460 -214 -330 -153 -334 -155 -353 -187 -27 -46 -22
-85 19 -139 1 -2 20 -10 40 -17 44 -15 56 -11 234 73 129 60 199 93 270 125
30 14 108 50 173 81 65 31 120 56 121 56 2 0 55 24 117 54 63 29 143 67 179
84 36 16 109 50 162 76 53 25 99 46 103 46 7 0 -28 -29 -401 -330 -227 -182
-330 -266 -369 -298 -11 -9 -130 -106 -265 -215 -135 -109 -276 -224 -315
-255 -38 -31 -153 -124 -255 -206 -102 -82 -245 -198 -317 -258 -73 -59 -137
-108 -142 -108 -7 0 -397 168 -566 244 -27 13 -87 38 -132 57 -45 19 -83 37
-83 40 0 3 39 24 88 47 92 43 131 61 462 215 605 280 585 270 603 314 26 65
-13 136 -80 149 -36 7 -119 -29 -766 -335 -60 -28 -110 -51 -112 -51 -1 0 -54
-24 -116 -54 -63 -29 -154 -72 -204 -95 -103 -48 -120 -61 -146 -113 -24 -47
-24 -101 0 -154 22 -48 53 -72 138 -108 35 -14 86 -37 115 -50 29 -13 107 -47
173 -76 66 -28 134 -58 150 -65 139 -64 376 -165 384 -165 6 0 11 -3 12 -7 0
-5 2 -17 5 -28 2 -11 6 -33 8 -50 5 -31 51 -307 60 -360 3 -16 28 -165 55
-330 27 -165 52 -313 55 -330 15 -87 67 -406 73 -442 6 -46 50 -102 81 -104 9
0 24 -2 33 -4 9 -1 30 4 46 11 31 16 28 11 637 942 76 117 142 212 146 212 9
0 88 -36 315 -142 88 -42 189 -89 225 -105 141 -66 521 -243 625 -293 199 -94
263 -120 297 -120 76 1 158 66 171 135 7 37 16 159 32 460 5 94 12 209 20 335
2 41 7 120 10 175 3 55 8 134 10 175 6 88 11 173 20 330 3 63 8 140 10 170 2
30 7 107 10 170 3 63 7 140 10 170 2 30 7 107 10 170 4 63 8 135 10 160 2 25
7 104 10 175 3 72 8 150 10 175 2 25 6 99 10 165 3 66 8 145 10 175 3 30 7
107 10 170 4 63 8 135 10 160 7 91 -55 160 -130 143z m-120 -635 c-3 -62 -8
-147 -10 -188 -9 -145 -17 -275 -20 -330 -2 -30 -7 -107 -10 -170 -4 -63 -8
-144 -10 -180 -3 -36 -7 -110 -10 -165 -3 -55 -7 -134 -10 -175 -2 -41 -7
-115 -10 -165 -6 -102 -14 -230 -20 -325 -2 -36 -7 -117 -10 -180 -4 -63 -8
-135 -10 -160 -2 -25 -6 -106 -10 -180 -4 -74 -8 -155 -10 -180 -2 -25 -7
-103 -10 -174 -9 -152 -8 -150 -18 -153 -8 -3 -57 18 -182 77 -49 23 -227 106
-395 185 -168 78 -349 163 -403 189 -55 25 -100 46 -102 46 -2 0 -51 23 -109
51 -72 34 -104 54 -99 62 6 10 150 230 528 807 56 85 137 209 180 275 43 66
130 199 193 295 63 96 149 227 190 290 391 598 366 560 370 560 2 0 1 -51 -3
-112z m-872 -446 c-10 -10 -52 -56 -93 -102 -64 -72 -140 -157 -175 -196 -5
-6 -37 -41 -70 -79 -33 -37 -67 -75 -76 -84 -8 -9 -89 -99 -179 -201 -91 -102
-169 -190 -175 -196 -5 -6 -24 -26 -40 -45 -17 -19 -84 -94 -150 -168 -66 -74
-171 -191 -232 -260 -62 -69 -117 -139 -122 -156 -5 -16 -23 -88 -40 -160 -17
-71 -42 -179 -57 -240 -14 -60 -27 -117 -29 -125 -2 -8 -11 -44 -20 -80 -8
-36 -18 -74 -20 -85 -25 -113 -40 -165 -47 -165 -4 0 -8 3 -8 7 0 3 -20 130
-46 282 -25 152 -47 290 -50 306 -2 17 -6 41 -9 55 -3 14 -7 39 -10 56 -3 17
-14 87 -25 154 -12 68 -17 126 -13 130 9 8 369 299 573 463 74 60 153 124 175
142 22 18 130 105 240 194 395 320 539 437 619 503 77 64 116 89 79 50z m91
-234 c-5 -7 -47 -71 -94 -143 -47 -71 -124 -188 -171 -260 -46 -71 -133 -205
-194 -297 -60 -92 -179 -273 -264 -403 -85 -130 -158 -238 -163 -241 -4 -3
-43 11 -86 32 -42 20 -92 43 -110 51 -40 17 -41 15 64 129 44 49 98 109 120
134 21 25 41 47 44 50 3 3 41 45 85 95 44 49 85 95 90 101 19 21 140 157 158
178 10 12 49 54 85 95 37 41 74 82 83 93 33 37 144 162 159 178 24 25 155 173
176 198 20 24 30 29 18 10z m-1063 -1513 c27 -14 49 -28 49 -30 0 -6 -348
-535 -360 -548 -4 -5 3 33 16 85 13 51 26 105 29 120 6 33 81 348 96 404 l11
42 55 -24 c30 -13 77 -36 104 -49z"/>
</g>
</svg>
