<svg width="250" height="250" viewBox="0 0 250 250" fill="none" xmlns="http://www.w3.org/2000/svg">
<g clip-path="url(#clip0_1_486)">
<path d="M239.563 74.9229C232.875 59.6436 223.335 46.0371 211.208 34.4839C209.642 32.9922 207.165 33.0518 205.673 34.6182C204.182 36.1836 204.242 38.6611 205.807 40.1519C229.256 62.4912 242.171 92.6245 242.171 125C242.171 189.608 189.608 242.171 125 242.171C60.3906 242.171 7.82861 189.608 7.82861 125C7.82861 60.3916 60.3916 7.82861 125 7.82861C148.602 7.82861 171.353 14.814 190.792 28.0283C192.58 29.2437 195.014 28.7793 196.23 26.9922C197.445 25.2041 196.981 22.7695 195.193 21.5542C174.45 7.45361 150.178 0 125 0C91.6113 0 60.2212 13.002 36.6118 36.6118C13.0024 60.2212 0 91.6113 0 125C0 158.389 13.0024 189.779 36.6118 213.388C60.2212 236.998 91.6113 250 125 250C158.389 250 189.779 236.998 213.388 213.388C236.998 189.779 250 158.389 250 125C250 107.592 246.489 90.7432 239.563 74.9229Z" fill="#141E61"/>
<path d="M187.366 56.4468C187.289 53.6753 184.312 51.8437 181.803 53.0039L106.522 88.0483C104.562 88.9604 103.713 91.2895 104.625 93.2495C105.538 95.2095 107.867 96.0595 109.826 95.1465L156.264 73.5283L133.687 91.8052L81.8774 133.747L53.5395 121.348L93.2495 102.863C95.2094 101.95 96.0586 99.6216 95.146 97.6616C94.2334 95.7016 91.9043 94.8515 89.9458 95.7646L47.2016 115.663C44.9292 116.721 43.4946 119.035 43.5522 121.54C43.6084 123.991 45.0898 126.197 47.3354 127.179L78.977 141.022L88.2441 196.624C88.8144 200.062 93.4697 201.041 95.3794 198.126L121.666 158.003L171.379 181.203C175.362 183.063 180.102 180.22 180.358 175.848L187.362 56.7812C187.37 56.6714 187.369 56.5581 187.366 56.4468ZM118.833 148.042L110.549 144.177L151.305 98.4804L145.41 107.478L118.833 148.042ZM106.821 151.076L114.498 154.659L101.098 175.113L106.821 151.076ZM148.429 89.9429L101.204 142.893C100.779 143.369 100.463 143.969 100.317 144.591L92.7822 176.235L86.7255 139.894L148.429 89.9429ZM172.674 173.168L126.001 151.388L178.686 70.9756L172.674 173.168Z" fill="#141E61"/>
</g>
<defs>
<clipPath id="clip0_1_486">
<rect width="250" height="250" fill="white"/>
</clipPath>
</defs>
</svg>
